<?xml version="1.0" standalone="no"?>
<!DOCTYPE svg PUBLIC "-//W3C//DTD SVG 20010904//EN"
 "http://www.w3.org/TR/2001/REC-SVG-20010904/DTD/svg10.dtd">
<svg version="1.0" xmlns="http://www.w3.org/2000/svg"
 width="700.000000pt" height="700.000000pt" viewBox="0 0 700.000000 700.000000"
 preserveAspectRatio="xMidYMid meet">
<metadata>
Created by potrace 1.14, written by Peter Selinger 2001-2017
</metadata>
<g transform="translate(0.000000,700.000000) scale(0.100000,-0.100000)"
fill="#000000" stroke="none">
<path d="M4807 6054 c-1 -1 -146 -4 -322 -8 -176 -3 -336 -8 -355 -10 -19 -2
-78 -7 -130 -10 -52 -4 -102 -8 -110 -11 -8 -2 -46 -6 -85 -10 -38 -3 -97 -10
-130 -15 -33 -5 -78 -12 -100 -15 -22 -4 -51 -8 -65 -11 -14 -2 -45 -7 -70
-10 -25 -3 -48 -8 -51 -10 -3 -2 -21 -6 -40 -9 -19 -3 -65 -12 -104 -21 -974
-216 -1654 -685 -2008 -1385 -35 -68 -73 -149 -84 -179 -25 -62 -79 -212 -80
-220 -1 -3 -8 -31 -18 -62 -9 -31 -18 -70 -21 -85 -3 -15 -11 -53 -19 -83 -7
-30 -17 -77 -21 -105 -3 -27 -8 -57 -9 -65 -43 -253 -52 -680 -21 -912 21
-153 79 -371 131 -493 71 -166 150 -305 253 -445 l70 -96 -28 -102 c-23 -82
-69 -271 -85 -353 -3 -17 -40 -239 -50 -304 -12 -76 -14 -196 -4 -222 45 -120
190 -178 305 -123 80 39 116 108 129 245 4 44 8 82 10 85 2 3 6 28 9 55 4 28
9 59 11 70 3 11 7 31 9 45 22 123 71 338 77 345 2 1 265 5 584 8 319 3 596 8
615 10 19 3 67 8 106 11 39 4 80 8 90 10 11 2 42 7 69 10 146 21 131 18 240
41 310 63 631 176 864 304 41 23 76 41 78 41 12 0 267 176 343 236 114 91 329
307 422 424 78 98 211 293 266 390 30 53 142 277 176 352 82 182 187 507 241
748 40 176 47 209 69 340 20 114 24 141 36 240 27 218 34 289 45 440 3 30 5
210 6 400 2 379 1 383 -60 453 -60 68 -55 67 -649 70 -294 1 -534 1 -535 1z
m793 -443 c14 -1 16 -29 14 -223 -1 -123 -4 -243 -7 -268 -3 -25 -9 -74 -12
-110 -13 -138 -24 -239 -31 -280 -2 -14 -6 -45 -10 -70 -3 -25 -12 -83 -21
-130 -8 -47 -17 -96 -19 -110 -12 -71 -49 -230 -79 -346 -116 -440 -293 -820
-524 -1129 -75 -100 -293 -327 -384 -399 -360 -288 -824 -476 -1337 -540 -69
-8 -145 -18 -170 -22 -25 -3 -276 -8 -558 -11 l-512 -5 10 26 c5 14 33 74 61
133 315 648 807 1114 1533 1449 83 38 131 85 151 145 51 152 -68 302 -224 286
-100 -11 -448 -193 -716 -375 -474 -321 -833 -724 -1096 -1228 -34 -66 -63
-120 -64 -122 -3 -3 -79 150 -108 218 -22 50 -75 231 -82 282 -4 23 -8 45 -10
49 -25 39 -25 609 -1 749 3 14 9 57 15 95 6 39 13 81 16 95 3 14 7 34 9 45 26
133 106 363 172 495 238 476 635 809 1234 1035 51 19 74 28 85 31 153 48 319
93 400 110 11 2 43 8 71 14 28 6 64 13 80 16 16 3 65 11 109 19 44 8 100 17
125 19 25 3 61 7 80 10 61 9 190 23 300 31 30 2 127 7 215 11 88 4 161 7 162
8 2 1 1103 -1 1123 -3z"/>
</g>
</svg>
